<svg width="60" height="46" viewBox="0 0 60 46" fill="none" xmlns="http://www.w3.org/2000/svg">
<path d="M30.4464 21.3541C35.7073 21.3541 39.9884 17.073 39.9884 11.8108C39.9884 6.55061 35.708 2.27148 30.4464 2.27148C25.1862 2.27148 20.9071 6.55061 20.9071 11.8108C20.9071 17.073 25.1862 21.3541 30.4464 21.3541Z" fill="#F9EFE3"/>
<path d="M37.4038 19.7881C35.5273 21.4443 33.0666 22.4584 30.3726 22.4584C27.7036 22.4584 25.1934 21.4628 23.3222 19.8336C23.3064 19.8441 23.1468 19.8593 23.129 19.8672C20.046 21.3257 18.0521 23.845 18.0521 26.9624V44.121H42.3495V26.9604C42.3488 23.8549 40.5422 21.2459 37.4038 19.7881Z" fill="#B0E0D4"/>
<path d="M12.5294 25.8325V34.1817H2.58984V24.3714C2.58984 22.5635 3.67446 21.2283 5.4138 20.4035C6.5505 21.3464 8.10787 21.914 9.69622 21.914C11.1936 21.914 12.6204 21.4057 13.7261 20.5578L14.5233 21.1189C12.8169 22.8918 12.5294 25.7 12.5294 25.8325ZM9.7971 20.8097C6.78787 20.8097 4.33973 18.3602 4.33973 15.3496C4.33973 12.3391 6.78787 9.88965 9.7971 9.88965C12.809 9.88965 15.2597 12.3391 15.2597 15.3496C15.2597 18.3602 12.8096 20.8097 9.7971 20.8097Z" fill="#E0F1F8"/>
<path d="M45.9488 21.273L46.8217 20.7126C47.9288 21.5585 49.3325 22.0675 50.8292 22.0675C52.4176 22.0675 53.934 21.4998 55.0714 20.557C56.8114 21.3825 57.809 22.717 57.809 24.5249V34.1816H47.8707V25.9867C47.8707 25.8541 47.6565 23.0453 45.9488 21.273ZM45.3092 15.5025C45.3092 12.4919 47.76 10.0425 50.7718 10.0425C53.7811 10.0425 56.2292 12.4919 56.2292 15.5025C56.2292 18.513 53.7811 20.9631 50.7718 20.9631C47.76 20.9631 45.3092 18.513 45.3092 15.5025Z" fill="#E0F1F8"/>
<path d="M30.2334 23.6553C23.756 23.6553 18.4852 18.3839 18.4852 11.9039C18.4852 5.42587 23.756 0.155762 30.2334 0.155762C36.712 0.155762 41.9841 5.42587 41.9841 11.9039C41.9841 18.3839 36.712 23.6553 30.2334 23.6553ZM30.2334 3.46895C25.5817 3.46895 21.7984 7.25291 21.7984 11.9039C21.7984 16.5575 25.5817 20.3421 30.2334 20.3421C34.8857 20.3421 38.6709 16.5575 38.6709 11.9039C38.6703 7.25291 34.885 3.46895 30.2334 3.46895Z" fill="#454B53"/>
<path d="M42.7517 45.3746C41.8365 45.3746 41.0948 44.6329 41.0948 43.7177V27.0535C41.0948 24.3397 39.5499 22.1382 36.7451 20.8564C35.913 20.476 35.5477 19.4935 35.9275 18.6608C36.3086 17.8281 37.2897 17.4621 38.1231 17.8432C42.1181 19.6702 44.4079 23.027 44.4079 27.0542V43.7177C44.4086 44.6329 43.6668 45.3746 42.7517 45.3746Z" fill="#454B53"/>
<path d="M17.8793 45.3759C16.9642 45.3759 16.2224 44.6342 16.2224 43.719V27.0542C16.2224 23.0935 18.4253 19.7797 22.2666 17.9625C23.0947 17.5702 24.0811 17.9243 24.4727 18.7511C24.8644 19.5779 24.511 20.5656 23.6842 20.9572C20.9703 22.241 19.5363 24.3495 19.5363 27.0542V43.7183C19.5363 44.6342 18.7945 45.3759 17.8793 45.3759Z" fill="#454B53"/>
<path d="M9.79115 23.0646C5.56478 23.0646 2.125 19.6242 2.125 15.3958C2.125 11.1668 5.56478 7.72705 9.79115 7.72705C14.0215 7.72705 17.4632 11.1668 17.4632 15.3958C17.4626 19.6242 14.0215 23.0646 9.79115 23.0646ZM9.79115 11.0402C7.39115 11.0402 5.43819 12.9939 5.43819 15.3952C5.43819 17.7965 7.39115 19.7501 9.79115 19.7501C12.1951 19.7501 14.1494 17.7965 14.1494 15.3952C14.1494 12.9939 12.1945 11.0402 9.79115 11.0402Z" fill="#454B53"/>
<path d="M2.43427 35.7475C1.5191 35.7475 0.777344 35.0058 0.777344 34.0906V24.4174C0.777344 21.759 2.158 19.6405 4.66482 18.4524C5.49097 18.062 6.47932 18.4128 6.87097 19.2403C7.26328 20.0671 6.91119 21.0548 6.08372 21.4464C4.74262 22.082 4.09119 23.0539 4.09119 24.4174V34.0906C4.09119 35.0058 3.34943 35.7475 2.43427 35.7475Z" fill="#454B53"/>
<path d="M50.7389 23.0646C46.5105 23.0646 43.0701 19.6242 43.0701 15.3958C43.0701 11.1668 46.5105 7.72705 50.7389 7.72705C54.9672 7.72705 58.407 11.1668 58.407 15.3958C58.407 19.6242 54.9672 23.0646 50.7389 23.0646ZM50.7389 11.0402C48.3369 11.0402 46.3839 12.9939 46.3839 15.3952C46.3839 17.7965 48.3375 19.7501 50.7389 19.7501C53.1402 19.7501 55.0931 17.7965 55.0931 15.3952C55.0931 12.9939 53.1402 11.0402 50.7389 11.0402Z" fill="#454B53"/>
<path d="M58.1934 35.7477C57.2789 35.7477 56.5371 35.0059 56.5371 34.0907V24.4176C56.5371 23.027 55.86 22.0406 54.4648 21.4024C53.6327 21.022 53.2674 20.0382 53.6485 19.2068C54.0296 18.374 55.0134 18.0101 55.8441 18.3905C58.4274 19.5734 59.8503 21.7136 59.8503 24.4182V34.0914C59.8503 35.0059 59.1085 35.7477 58.1934 35.7477Z" fill="#454B53"/>
</svg>
